<?xml version="1.0" encoding="UTF-8" standalone="no"?>
<!-- License Agreement at http://iconmonstr.com/license/ -->

<svg
   xmlns:dc="http://purl.org/dc/elements/1.1/"
   xmlns:cc="http://creativecommons.org/ns#"
   xmlns:rdf="http://www.w3.org/1999/02/22-rdf-syntax-ns#"
   xmlns:svg="http://www.w3.org/2000/svg"
   xmlns="http://www.w3.org/2000/svg"
   xmlns:sodipodi="http://sodipodi.sourceforge.net/DTD/sodipodi-0.dtd"
   xmlns:inkscape="http://www.inkscape.org/namespaces/inkscape"
   version="1.1"
   x="0px"
   y="0px"
   width="512px"
   height="512px"
   viewBox="0 0 512 512"
   enable-background="new 0 0 512 512"
   xml:space="preserve"
   id="svg8815"
   sodipodi:docname="highscores.svg"
   inkscape:version="0.92.1 r15371"><metadata
   id="metadata8821"><rdf:RDF><cc:Work
       rdf:about=""><dc:format>image/svg+xml</dc:format><dc:type
         rdf:resource="http://purl.org/dc/dcmitype/StillImage" /></cc:Work></rdf:RDF></metadata><defs
   id="defs8819"><marker
     inkscape:stockid="Arrow1Lstart"
     orient="auto"
     refY="0.0"
     refX="0.0"
     id="marker9390"
     style="overflow:visible"
     inkscape:isstock="true"><path
       id="path9388"
       d="M 0.0,0.0 L 5.0,-5.0 L -12.5,0.0 L 5.0,5.0 L 0.0,0.0 z "
       style="fill-rule:evenodd;stroke:#000000;stroke-width:1.0pt"
       transform="scale(0.8) translate(12.5,0)" /></marker><marker
     inkscape:stockid="Arrow1Lstart"
     orient="auto"
     refY="0.0"
     refX="0.0"
     id="Arrow1Lstart"
     style="overflow:visible"
     inkscape:isstock="true"><path
       id="path5050"
       d="M 0.0,0.0 L 5.0,-5.0 L -12.5,0.0 L 5.0,5.0 L 0.0,0.0 z "
       style="fill-rule:evenodd;stroke:#000000;stroke-width:1.0pt"
       transform="scale(0.8) translate(12.5,0)" /></marker></defs><sodipodi:namedview
   pagecolor="#ffffff"
   bordercolor="#666666"
   borderopacity="1"
   objecttolerance="10"
   gridtolerance="10"
   guidetolerance="10"
   inkscape:pageopacity="0"
   inkscape:pageshadow="2"
   inkscape:window-width="1366"
   inkscape:window-height="705"
   id="namedview8817"
   showgrid="true"
   inkscape:zoom="0.921875"
   inkscape:cx="203.28566"
   inkscape:cy="211.40822"
   inkscape:window-x="-8"
   inkscape:window-y="-8"
   inkscape:window-maximized="1"
   inkscape:current-layer="svg8815"><inkscape:grid
     type="xygrid"
     id="grid9376" /></sodipodi:namedview>
<rect
   style="opacity:1;fill:#000000;fill-opacity:1;fill-rule:nonzero;stroke:#000000;stroke-width:3.383;stroke-linecap:round;stroke-linejoin:round;stroke-miterlimit:4;stroke-dasharray:none;stroke-dashoffset:0;stroke-opacity:1;paint-order:fill markers stroke"
   id="rect9378"
   width="430"
   height="430"
   x="40"
   y="42"
   ry="5.7008063e-005"
   inkscape:export-xdpi="100"
   inkscape:export-ydpi="100" /><path
   id="trophy-7-icon"
   d="M280.178,340.44c11.666-56.344,94.745-99.578,94.745-267.869h-237.64  c0,168.291,83.082,211.525,94.745,267.869H280.178z M208.681,153.704l32.855-4.538L256,119.326l14.468,29.84l32.852,4.538  l-23.914,22.977l5.837,32.646L256,193.684l-29.246,15.643l5.841-32.646L208.681,153.704z M140.44,220.253  c5.08,12.363,10.586,23.555,16.195,33.797C93.625,227.599,56.048,164.558,50,97.948h64.554c0.38,7.559,0.913,14.986,1.641,22.262  H76.226C82.916,151.573,99.525,193.345,140.44,220.253z M329.276,415.726v23.703H182.931v-23.703  c37.9,0,47.896-31.799,49.562-53.023c0,0,45.622,0,47.222,0C281.379,383.927,290.283,415.726,329.276,415.726z M462,97.948  c-6.039,66.514-43.518,129.469-106.366,155.988c5.614-10.262,11.125-21.479,16.206-33.869  c40.712-26.914,57.259-68.566,63.935-99.857h-39.762c0.727-7.275,1.261-14.703,1.64-22.262H462z" />
<path
   style="opacity:1;fill:#4d4d4c;fill-opacity:1;fill-rule:nonzero;stroke:none;stroke-width:1.43493927;stroke-linecap:round;stroke-linejoin:round;stroke-miterlimit:4;stroke-dasharray:none;stroke-dashoffset:0;stroke-opacity:1;paint-order:fill markers stroke"
   d="m 231.19783,336.18627 c -1.35828,-5.27271 -3.66926,-11.08606 -7.18456,-18.07299 -4.1558,-8.25998 -7.65546,-13.94093 -22.46059,-36.45986 -7.06037,-10.73899 -14.66707,-22.57627 -16.90379,-26.30509 C 153.99802,204.25044 139.64795,152.19108 137.74196,85.17884 L 137.3833,72.568671 h 118.59505 118.59504 l -0.003,7.186441 c -0.002,3.952542 -0.24993,11.823728 -0.55199,17.491525 -3.03486,56.945863 -15.96704,103.998223 -40.72512,148.174083 -5.93013,10.58113 -10.58984,18.03176 -24.35637,38.94456 -7.06929,10.73898 -14.11855,21.68576 -15.66503,24.32616 -5.88384,10.04587 -10.71002,20.95946 -12.56762,28.4196 l -0.70903,2.84746 H 256.0823 232.16937 l -0.97175,-3.77223 z m 10.54312,-134.56935 14.23541,-7.62972 2.48496,1.32879 c 1.36672,0.73083 7.80619,4.18029 14.30991,7.66546 6.50373,3.48518 12.0181,6.25958 12.25416,6.16534 0.23606,-0.0942 -0.87297,-7.37134 -2.46451,-16.17134 l -2.89372,-16 12.06328,-11.77184 c 6.63481,-6.47452 11.85751,-11.783 11.60599,-11.79661 -0.86146,-0.0466 -32.62732,-4.4643 -32.71525,-4.54968 -0.0483,-0.0469 -3.24697,-6.63107 -7.10818,-14.63151 -3.86122,-8.00044 -7.2324,-14.55583 -7.49152,-14.56754 -0.25912,-0.0117 -3.65027,6.56108 -7.53588,14.60621 l -7.06475,14.6275 -16.26115,2.28029 c -8.94363,1.25415 -16.34774,2.36687 -16.45357,2.4727 -0.10583,0.10584 3.42864,3.68972 7.85437,7.96419 4.42574,4.27448 9.79175,9.48054 11.92448,11.56904 l 3.87769,3.79725 -2.91395,16 c -1.60266,8.8 -2.92051,16.06102 -2.92853,16.13559 -0.0618,0.57456 2.74272,-0.8063 15.22076,-7.49412 z"
   id="path9366"
   inkscape:connector-curvature="0" /><path
   style="opacity:1;fill:#fa0000;fill-opacity:1;fill-rule:nonzero;stroke:none;stroke-width:1.43493927;stroke-linecap:round;stroke-linejoin:round;stroke-miterlimit:4;stroke-dasharray:none;stroke-dashoffset:0;stroke-opacity:1;paint-order:fill markers stroke"
   d="m 232.2963,339.55172 c -0.13168,-0.22373 -0.41833,-1.26101 -0.63701,-2.30508 -0.21867,-1.04407 -0.64336,-2.20339 -0.94375,-2.57627 -0.30038,-0.37289 -0.36435,-0.67797 -0.14215,-0.67797 0.22221,0 0.10017,-0.3661 -0.27118,-0.81356 -0.37136,-0.44746 -0.49339,-0.81356 -0.27119,-0.81356 0.22221,0 0.10017,-0.3661 -0.27119,-0.81356 -0.37135,-0.44746 -0.49339,-0.81356 -0.27118,-0.81356 0.2222,0 0.10017,-0.3661 -0.27119,-0.81356 -0.37136,-0.44745 -0.4952,-0.81356 -0.27521,-0.81356 0.21998,0 1.7e-4,-0.61017 -0.48847,-1.35593 -0.48865,-0.74576 -0.75452,-1.35593 -0.59082,-1.35593 0.16368,0 -0.12494,-0.79322 -0.64139,-1.76271 -0.51645,-0.96949 -0.88882,-1.94576 -0.82748,-2.16949 0.0613,-0.22373 -0.13256,-0.40678 -0.43087,-0.40678 -0.2983,0 -0.48135,-0.19579 -0.40678,-0.43509 0.21069,-0.67603 -2.43066,-6.07339 -2.97217,-6.07339 -0.26492,0 -0.33083,-0.24407 -0.14647,-0.54237 0.18436,-0.29831 0.0767,-0.54237 -0.23917,-0.54237 -0.31592,0 -0.5318,-0.18305 -0.47974,-0.40678 0.15171,-0.65202 -1.3092,-3.38983 -1.80883,-3.38983 -0.25042,0 -0.39938,-0.18305 -0.33101,-0.40678 0.18638,-0.61 -2.42078,-5.01695 -2.96805,-5.01695 -0.26098,0 -0.34651,-0.20711 -0.19007,-0.46024 0.15644,-0.25312 -0.19525,-0.97513 -0.78155,-1.60444 -0.58629,-0.62931 -1.06599,-1.39848 -1.06599,-1.70926 0,-0.31077 -0.24406,-0.56505 -0.54237,-0.56505 -0.2983,0 -0.54237,-0.27505 -0.54237,-0.61122 0,-0.89319 -7.12724,-11.86335 -7.70753,-11.86335 -0.27065,0 -0.34017,-0.24579 -0.15451,-0.5462 0.18566,-0.30042 -0.0426,-0.69209 -0.50725,-0.8704 -0.46465,-0.1783 -0.70872,-0.5444 -0.54237,-0.81356 0.16635,-0.26915 -0.0777,-0.63525 -0.54237,-0.81356 -0.46466,-0.1783 -0.70873,-0.5444 -0.54238,-0.81356 0.16635,-0.26915 -0.0777,-0.63525 -0.54237,-0.81356 -0.46466,-0.1783 -0.70872,-0.5444 -0.54237,-0.81356 0.16634,-0.26915 -0.0777,-0.63525 -0.54237,-0.81355 -0.46466,-0.1783 -0.70873,-0.54441 -0.54238,-0.81356 0.16635,-0.26916 -0.0385,-0.62019 -0.45509,-0.78007 -0.41665,-0.15988 -0.75754,-0.59516 -0.75754,-0.96728 0,-0.37213 -1.45769,-2.86332 -3.23929,-5.53598 -1.78162,-2.67267 -4.89963,-7.48313 -6.92892,-10.68991 -2.0293,-3.20678 -3.92161,-5.83051 -4.20515,-5.83051 -0.28354,0 -0.37018,-0.23516 -0.19254,-0.52259 0.17764,-0.28742 -0.17406,-1.01962 -0.78155,-1.62712 -0.60749,-0.60749 -1.07461,-1.24284 -1.03803,-1.4119 0.14649,-0.67713 -2.88626,-5.65873 -3.44498,-5.65873 -0.32941,0 -0.44085,-0.15807 -0.24765,-0.35127 0.45194,-0.45194 -1.82587,-4.53008 -2.53024,-4.53008 -0.29309,0 -0.37329,-0.15961 -0.17821,-0.35468 0.42809,-0.4281 -3.46206,-7.78091 -4.11665,-7.78091 -0.25313,0 -0.3094,-0.24407 -0.12504,-0.54238 0.18436,-0.2983 0.0623,-0.54237 -0.27119,-0.54237 -0.33351,0 -0.45555,-0.24407 -0.27118,-0.54237 0.18436,-0.29831 0.0623,-0.54238 -0.27119,-0.54238 -0.33352,0 -0.45555,-0.24406 -0.27119,-0.54237 0.18437,-0.2983 0.0623,-0.54237 -0.27118,-0.54237 -0.33352,0 -0.45555,-0.24407 -0.27119,-0.54237 0.18436,-0.29831 0.0623,-0.54238 -0.27119,-0.54238 -0.33351,0 -0.45555,-0.24407 -0.27118,-0.54237 0.18436,-0.29831 0.0767,-0.54237 -0.23918,-0.54237 -0.31591,0 -0.51337,-0.18523 -0.43879,-0.41162 0.19842,-0.60233 -2.89999,-7.72398 -3.36046,-7.72398 -0.21502,0 -0.39095,-0.34972 -0.39095,-0.77717 0,-0.82608 -2.83139,-7.44281 -3.38086,-7.90079 -0.17895,-0.14916 -0.39903,-0.63729 -0.48907,-1.08475 -0.25302,-1.2574 -4.05413,-11.08411 -4.40574,-11.38983 -0.17155,-0.14915 -0.3119,-0.51525 -0.3119,-0.81356 0,-0.2983 -1.09831,-3.83729 -2.44068,-7.86441 -1.34237,-4.02711 -2.56271,-7.44406 -2.71186,-7.59322 -0.14916,-0.14915 -0.27124,-0.51525 -0.2713,-0.81355 -2.1e-4,-1.12248 -3.21414,-12.48147 -3.57529,-12.63618 -0.20748,-0.0889 -0.25265,-0.63803 -0.10038,-1.22034 0.15228,-0.58231 0.0272,-1.05874 -0.27798,-1.05874 -0.30517,0 -0.42721,-0.48813 -0.27119,-1.08474 0.16488,-0.63049 0.0166,-1.08475 -0.35397,-1.08475 -0.3507,0 -0.49983,-0.22299 -0.33139,-0.49553 0.2891,-0.46776 -0.97856,-6.969 -1.70122,-8.72481 -0.18416,-0.44746 -0.28566,-1.21905 -0.22554,-1.71466 0.0601,-0.49561 -0.13577,-1.05258 -0.43532,-1.23771 -0.29956,-0.18513 -0.41164,-0.6832 -0.24908,-1.10682 0.16256,-0.42362 0.11385,-1.06423 -0.10824,-1.42358 -0.22209,-0.35935 -0.5001,-1.77443 -0.61779,-3.14462 -0.11769,-1.37019 -0.42667,-2.70404 -0.68662,-2.96413 -0.25995,-0.26008 -0.34357,-0.80923 -0.18581,-1.22034 0.15776,-0.4111 0.1133,-1.17458 -0.0988,-1.69661 -0.21209,-0.52204 -0.49335,-2.27174 -0.62501,-3.88824 -0.13167,-1.61649 -0.40384,-3.20293 -0.60482,-3.52542 -0.20099,-0.32249 -0.29501,-1.13141 -0.20895,-1.7976 0.0861,-0.66618 -0.0198,-1.49644 -0.2352,-1.84501 -0.21542,-0.34857 -0.45307,-1.38994 -0.52809,-2.31417 -0.075,-0.92422 -0.25739,-2.77872 -0.40525,-4.12109 -1.57307,-14.28111 -2.16021,-23.20575 -2.73863,-41.627118 l -0.34485,-10.983051 h 118.52097 118.52097 l -0.33373,11.525424 c -0.32644,11.273056 -0.63754,17.715825 -1.19819,24.813555 -0.15316,1.93899 -0.33592,4.64121 -0.40613,6.00495 -0.0702,1.36374 -0.27326,2.95018 -0.45123,3.52543 -0.27884,0.90131 -0.73702,5.42578 -1.15486,11.40427 -0.0646,0.92423 -0.2937,1.96561 -0.50912,2.31417 -0.21543,0.34857 -0.33847,1.17883 -0.27342,1.84501 0.0651,0.6662 -0.0314,1.57736 -0.21435,2.02482 -0.18295,0.44746 -0.40229,2.0339 -0.48743,3.52542 -0.0851,1.49153 -0.33246,2.84498 -0.5496,3.00766 -0.21715,0.16269 -0.4973,1.50506 -0.62258,2.98305 -0.12527,1.47799 -0.36006,3.05336 -0.52173,3.50082 -0.60801,1.68273 -1.9863,9.40114 -1.72538,9.66206 0.14962,0.14961 0.037,0.55519 -0.2502,0.90127 -0.28722,0.34609 -0.59019,1.46685 -0.67326,2.49058 -0.0831,1.02374 -0.28314,1.98338 -0.4446,2.13253 -0.35687,0.32967 -2.40701,8.6222 -2.41359,9.76271 -0.003,0.44746 -0.14341,0.93559 -0.31294,1.08475 -0.41591,0.36593 -3.40024,10.87251 -3.42777,12.06779 -0.012,0.52204 -0.23975,0.94915 -0.50604,0.94915 -0.2663,0 -0.3437,0.36611 -0.17199,0.81356 0.17171,0.44746 0.11674,0.81356 -0.12216,0.81356 -0.5567,0 -1.74518,3.82887 -1.3746,4.42848 0.15395,0.24908 -0.005,0.45288 -0.35251,0.45288 -0.34783,0 -0.49193,0.3661 -0.32022,0.81356 0.17171,0.44746 0.0497,0.81356 -0.27118,0.81356 -0.32087,0 -0.4429,0.3661 -0.27119,0.81356 0.1717,0.44745 0.0957,0.81356 -0.16894,0.81356 -0.44649,0 -2.9855,6.65017 -3.00261,7.8644 -0.004,0.29831 -0.32676,0.87893 -0.7168,1.29028 -0.39004,0.41134 -0.58074,1.08253 -0.4238,1.49152 0.15694,0.40899 0.097,0.74363 -0.1333,0.74363 -0.39649,0 -3.63715,7.48626 -3.99131,9.22034 -0.0914,0.44745 -0.31642,0.93559 -0.50008,1.08474 -0.78024,0.63366 -2.66272,4.96296 -2.36645,5.44233 0.17804,0.28807 0.0508,0.52377 -0.28268,0.52377 -0.33352,0 -0.45555,0.24407 -0.27119,0.54238 0.18437,0.2983 0.0623,0.54237 -0.27118,0.54237 -0.33352,0 -0.46843,0.22322 -0.29982,0.49605 0.16862,0.27282 0.0907,0.57791 -0.17321,0.67796 -0.71315,0.2704 -4.95321,8.94777 -4.56291,9.33808 0.18445,0.18445 0.0362,0.33537 -0.32941,0.33537 -0.36563,0 -0.51393,0.24406 -0.32957,0.54237 0.18437,0.2983 0.11552,0.54237 -0.15297,0.54237 -0.67057,0 -3.43792,5.17747 -3.00093,5.61446 0.1934,0.19341 0.11184,0.35164 -0.18125,0.35164 -0.2931,0 -1.08159,0.97628 -1.75222,2.1695 -0.67063,1.19322 -1.08168,2.16949 -0.91343,2.16949 0.16824,0 -0.0742,0.42712 -0.53878,0.94915 -1.37904,1.54962 -12.30349,19.3308 -12.32932,20.0678 -0.0131,0.37288 -0.20111,0.67796 -0.41788,0.67796 -0.5121,0 -17.32339,25.738 -17.32339,26.522 0,0.32816 -0.24407,0.59665 -0.54237,0.59665 -0.29831,0 -0.54237,0.34576 -0.54237,0.76836 0,0.4226 -0.20514,0.84971 -0.45586,0.94915 -0.56649,0.22468 -7.05473,10.40853 -7.25933,11.39416 -0.0821,0.39536 -0.28298,0.84087 -0.44645,0.99002 -0.82991,0.7572 -3.14402,5.32711 -2.84763,5.62351 0.18843,0.18842 0.0434,0.34259 -0.32218,0.34259 -0.36563,0 -0.51393,0.24407 -0.32957,0.54238 0.18436,0.2983 0.0623,0.54237 -0.27119,0.54237 -0.33351,0 -0.45555,0.24407 -0.27118,0.54237 0.18436,0.29831 0.0767,0.54238 -0.23918,0.54238 -0.31591,0 -0.52505,0.18305 -0.46475,0.40677 0.0603,0.22373 -0.43279,1.44407 -1.09576,2.71187 -0.66298,1.2678 -1.04853,2.30508 -0.85679,2.30508 0.19174,0 0.0677,0.3385 -0.27566,0.75222 -0.85571,1.03106 -3.95647,9.62472 -3.60104,9.98014 0.15756,0.15757 0.01,0.61992 -0.32848,1.02746 -0.33822,0.40753 -0.46026,0.89567 -0.27119,1.08475 0.18908,0.18907 0.0719,0.67131 -0.2603,1.07163 -0.48835,0.58842 -5.1056,0.72787 -24.09888,0.72787 -12.92214,0 -23.60254,-0.18305 -23.73422,-0.40678 z m -3.08982,-131.17753 c 1.19926,-0.47985 2.18047,-1.1307 2.18047,-1.44633 0,-0.31563 0.1616,-0.41228 0.3591,-0.21478 0.39493,0.39493 7.26515,-3.25534 7.90379,-4.19942 0.21916,-0.32398 0.40221,-0.38949 0.40678,-0.14556 0.0108,0.58066 6.51677,-2.99711 6.51677,-3.58375 0,-0.24706 0.24407,-0.29835 0.54238,-0.11398 0.2983,0.18436 0.54237,0.0361 0.54237,-0.32958 0,-0.36563 0.1593,-0.50547 0.354,-0.31077 0.36509,0.36509 6.16659,-2.70291 6.75748,-3.57356 0.47985,-0.70699 0.68836,-0.63712 4.56085,1.5285 1.93276,1.08087 3.51785,1.76115 3.52241,1.51175 0.004,-0.24941 0.18762,-0.19328 0.40678,0.12472 0.64785,0.94003 6.43871,4.04825 6.82414,3.66283 0.1947,-0.1947 0.354,-0.0549 0.354,0.31077 0,0.36563 0.24407,0.51394 0.54237,0.32957 0.29831,-0.18436 0.54238,-0.13307 0.54238,0.11399 0,0.64717 6.27605,4.00544 6.69764,3.58385 0.19426,-0.19426 0.3532,-0.10764 0.3532,0.19251 0,0.5277 0.98832,1.08738 4.78193,2.70799 l 1.79887,0.76847 -0.36882,-3.6834 c -0.20285,-2.02588 -0.48621,-3.8804 -0.6297,-4.12117 -0.26992,-0.45296 -0.43758,-1.45712 -1.01355,-6.07071 -0.18622,-1.49153 -0.54956,-3.10689 -0.80745,-3.58971 -0.25788,-0.48281 -0.34696,-0.99975 -0.19796,-1.14875 0.14901,-0.14901 0.01,-1.34042 -0.30938,-2.64759 -0.31917,-1.30716 -0.67539,-2.98683 -0.79161,-3.7326 -0.11621,-0.74576 -0.36242,-2.08813 -0.54715,-2.98305 -0.76185,-3.69082 -0.58452,-3.96858 8.25678,-12.93351 4.69695,-4.76262 9.82126,-9.87701 11.38737,-11.36531 3.33382,-3.16819 3.60896,-4.22625 1.08474,-4.1715 -0.96949,0.021 -3.20814,-0.22537 -4.97478,-0.54756 -1.76665,-0.32218 -3.52832,-0.46444 -3.91484,-0.31611 -0.38652,0.14832 -0.85097,0.0299 -1.03212,-0.26326 -0.18116,-0.29311 -1.10423,-0.53064 -2.05128,-0.52786 -1.60032,0.005 -3.09761,-0.16166 -7.95918,-0.8844 -1.04407,-0.15521 -2.63051,-0.35304 -3.52543,-0.4396 -0.89491,-0.0866 -2.05788,-0.33446 -2.58437,-0.55087 -0.52649,-0.21641 -1.42497,-0.27117 -1.9966,-0.12169 -0.96129,0.25139 -1.92793,-0.411 -3.65761,-2.50636 -0.35495,-0.42999 -0.49732,-0.92985 -0.31638,-1.11078 0.18093,-0.18094 0.0298,-0.32898 -0.3358,-0.32898 -0.36563,0 -0.51394,-0.24407 -0.32957,-0.54238 0.18436,-0.2983 0.0361,-0.54237 -0.32958,-0.54237 -0.36563,0 -0.52595,-0.13882 -0.35628,-0.30849 0.38645,-0.38645 -5.9996,-13.99813 -6.68379,-14.24631 -0.27584,-0.10005 -0.36356,-0.40514 -0.19494,-0.67796 0.16861,-0.27283 0.0337,-0.49605 -0.29982,-0.49605 -0.33352,0 -0.45555,-0.24407 -0.27119,-0.54238 0.18437,-0.2983 0.0623,-0.54237 -0.27118,-0.54237 -0.33352,0 -0.45555,-0.24407 -0.27119,-0.54237 0.18436,-0.29831 0.0623,-0.54237 -0.27119,-0.54237 -0.33351,0 -0.48391,-0.19817 -0.33422,-0.44038 0.14969,-0.24221 -0.47704,-1.75219 -1.39274,-3.35552 -1.5716,-2.75176 -1.70803,-2.85627 -2.43449,-1.8647 -1.5166,2.07003 -7.18801,13.65576 -6.85013,13.99365 0.1897,0.1897 0.0458,0.34491 -0.31986,0.34491 -0.36563,0 -0.51394,0.24407 -0.32957,0.54238 0.18436,0.2983 0.0623,0.54237 -0.27119,0.54237 -0.33352,0 -0.45555,0.24407 -0.27119,0.54237 0.18437,0.29831 0.11663,0.54237 -0.15052,0.54237 -0.26715,0 -1.65087,2.54694 -3.07493,5.65987 -2.65232,5.79785 -3.30825,6.51133 -5.80551,6.31494 -0.79075,-0.0622 -1.58422,0.12394 -1.76325,0.41362 -0.17903,0.28968 -0.80976,0.40005 -1.40161,0.24528 -0.59185,-0.15477 -1.50687,-0.10434 -2.03336,0.11207 -0.52649,0.21642 -1.68946,0.46431 -2.58438,0.55087 -0.89491,0.0866 -2.60339,0.29655 -3.79661,0.46663 -1.19322,0.17008 -2.53559,0.33862 -2.98305,0.37454 -0.44745,0.0359 -2.27796,0.29681 -4.06779,0.57976 -1.78983,0.28296 -3.98644,0.61622 -4.88136,0.74057 -6.09463,0.84689 -6.02332,0.8162 -5.24627,2.25811 0.58077,1.07769 6.52797,6.91724 7.41576,7.28153 0.29831,0.1224 3.9032,3.67176 8.01088,7.88745 7.16406,7.35246 7.44533,7.72585 6.90008,9.15997 -0.31263,0.82229 -0.44815,1.61534 -0.30115,1.76234 0.147,0.14701 0.0545,0.66478 -0.20546,1.1506 -0.40913,0.76448 -0.69663,2.34874 -1.3394,7.38084 -0.0762,0.59661 -0.30597,1.597 -0.51059,2.2231 -0.20461,0.6261 -0.48381,2.09051 -0.62044,3.25424 -0.13662,1.16373 -0.50645,3.18538 -0.82184,4.49254 -0.31539,1.30717 -0.45152,2.49858 -0.30252,2.64759 0.149,0.149 0.0404,0.70158 -0.24127,1.22796 -0.52675,0.98423 -1.17674,5.95118 -0.77879,5.95118 0.12234,0 1.20366,-0.3926 2.40291,-0.87245 z"
   id="path9368"
   inkscape:connector-curvature="0" /><path
   style="opacity:1;fill:#ff0000;fill-opacity:1;fill-rule:nonzero;stroke:none;stroke-width:1.43493927;stroke-linecap:round;stroke-linejoin:round;stroke-miterlimit:4;stroke-dasharray:none;stroke-dashoffset:0;stroke-opacity:1;paint-order:fill markers stroke"
   d="m 356.67509,252.9891 c 0,-0.0968 2.02323,-4.18189 4.49606,-9.07791 2.47283,-4.89601 5.92762,-12.19676 7.67731,-16.22387 l 3.18126,-7.32204 6.25462,-4.61017 c 3.44004,-2.53559 9.17205,-7.41695 12.73781,-10.84746 17.52556,-16.86083 29.76464,-36.38533 38.37248,-61.21401 2.56839,-7.40834 6.4669,-21.36307 6.4669,-23.1483 0,-0.67765 -2.82585,-0.79023 -19.83564,-0.79023 h -19.83564 l 0.3241,-2.84746 c 0.31123,-2.73444 1.37704,-16.76965 1.37976,-18.169488 10e-4,-0.534689 6.75678,-0.677966 31.96722,-0.677966 h 31.9659 l -0.23017,1.762712 c -2.06156,15.788022 -3.65196,24.239342 -6.54378,34.773532 -13.65737,49.75038 -45.24179,90.96289 -86.44599,112.7979 -5.61772,2.97695 -11.9322,5.93768 -11.9322,5.59476 z"
   id="path9370"
   inkscape:connector-curvature="0" /><path
   style="opacity:1;fill:#ff0000;fill-opacity:1;fill-rule:nonzero;stroke:none;stroke-width:1.43493927;stroke-linecap:round;stroke-linejoin:round;stroke-miterlimit:4;stroke-dasharray:none;stroke-dashoffset:0;stroke-opacity:1;paint-order:fill markers stroke"
   d="M 148.06598,249.72928 C 130.82693,241.21464 117.25162,231.28579 103.36783,217.03748 85.068052,198.25724 71.95616,177.2235 62.235624,151.05433 56.441517,135.45571 53.100494,121.07195 50.461698,100.36528 l -0.293753,-2.305084 h 32.033233 c 17.618278,0 32.040352,0.183051 32.049052,0.40678 0.0736,1.892744 1.10406,15.223534 1.38351,17.898304 l 0.35416,3.38983 H 96.128104 c -18.552776,0 -19.859749,0.0625 -19.859093,0.94915 0.0015,2.02212 2.858829,12.59447 5.6613,20.94726 8.220356,24.50082 20.413419,44.80406 36.669539,61.06019 5.31149,5.31149 14.17575,12.75072 18.98593,15.93372 2.4389,1.61388 2.79498,2.17394 5.92044,9.31173 1.829,4.17701 5.34169,11.56066 7.80597,16.40812 2.46428,4.84746 4.31342,8.81356 4.1092,8.81356 -0.20422,0 -3.51415,-1.5523 -7.35541,-3.44956 z"
   id="path9372"
   inkscape:connector-curvature="0" /><path
   style="opacity:1;fill:#ff0000;fill-opacity:1;fill-rule:nonzero;stroke:none;stroke-width:4.05862093;stroke-linecap:round;stroke-linejoin:round;stroke-miterlimit:4;stroke-dasharray:none;stroke-dashoffset:0;stroke-opacity:1;paint-order:fill markers stroke"
   d="M 183.01239,427.72852 V 417.154 l 9.37299,-1.65102 c 21.30647,-3.75306 35.96198,-19.86602 39.31983,-43.23007 l 1.20319,-8.37189 23.15668,-0.42229 23.15668,-0.4223 0.86958,7.34224 c 2.9146,24.60924 17.40897,41.2511 39.28398,45.10431 l 9.37298,1.65102 v 10.57452 10.57452 h -72.86795 -72.86796 z"
   id="path9374"
   inkscape:connector-curvature="0" /></svg>