<?xml version="1.0" encoding="UTF-8" standalone="no"?>
<!-- Created with Inkscape (http://www.inkscape.org/) -->

<svg
   xmlns:dc="http://purl.org/dc/elements/1.1/"
   xmlns:cc="http://creativecommons.org/ns#"
   xmlns:rdf="http://www.w3.org/1999/02/22-rdf-syntax-ns#"
   xmlns:svg="http://www.w3.org/2000/svg"
   xmlns="http://www.w3.org/2000/svg"
   xmlns:sodipodi="http://sodipodi.sourceforge.net/DTD/sodipodi-0.dtd"
   xmlns:inkscape="http://www.inkscape.org/namespaces/inkscape"
   width="210mm"
   height="297mm"
   viewBox="0 0 210 297"
   version="1.1"
   id="svg8"
   inkscape:version="0.92.1 r15371"
   sodipodi:docname="main_screen_buttons.svg"
   inkscape:export-filename="H:\own_projects\pyMemoryGame\icons\memory.png"
   inkscape:export-xdpi="1000.9429"
   inkscape:export-ydpi="1000.9429">
  <defs
     id="defs2">
    <inkscape:perspective
       sodipodi:type="inkscape:persp3d"
       inkscape:vp_x="4.3600441 : 198.87546 : 1"
       inkscape:vp_y="0 : 282.95919 : 0"
       inkscape:vp_z="192.83709 : 198.87546 : 1"
       inkscape:persp3d-origin="98.598567 : 184.86898 : 1"
       id="perspective4652" />
    <inkscape:path-effect
       effect="skeletal"
       id="path-effect4550"
       is_visible="true"
       pattern="M 0,5 C 0,2.24 2.24,0 5,0 7.76,0 10,2.24 10,5 10,7.76 7.76,10 5,10 2.24,10 0,7.76 0,5 Z"
       copytype="single_stretched"
       prop_scale="0.26458333"
       scale_y_rel="false"
       spacing="0"
       normal_offset="0"
       tang_offset="0"
       prop_units="false"
       vertical_pattern="false"
       fuse_tolerance="0" />
    <inkscape:path-effect
       effect="bspline"
       id="path-effect4548"
       is_visible="true"
       weight="33.333333"
       steps="2"
       helper_size="0"
       apply_no_weight="true"
       apply_with_weight="true"
       only_selected="false" />
    <inkscape:path-effect
       effect="bspline"
       id="path-effect4536"
       is_visible="true"
       weight="33.333333"
       steps="2"
       helper_size="0"
       apply_no_weight="true"
       apply_with_weight="true"
       only_selected="false" />
    <inkscape:path-effect
       effect="bspline"
       id="path-effect4532"
       is_visible="true"
       weight="33.333333"
       steps="2"
       helper_size="0"
       apply_no_weight="true"
       apply_with_weight="true"
       only_selected="false" />
  </defs>
  <sodipodi:namedview
     id="base"
     pagecolor="#ffffff"
     bordercolor="#666666"
     borderopacity="1.0"
     inkscape:pageopacity="0.0"
     inkscape:pageshadow="2"
     inkscape:zoom="4"
     inkscape:cx="147.05137"
     inkscape:cy="775.74883"
     inkscape:document-units="mm"
     inkscape:current-layer="layer1"
     showgrid="true"
     inkscape:snap-bbox="true"
     inkscape:snap-bbox-midpoints="true"
     inkscape:snap-global="true"
     inkscape:window-width="1366"
     inkscape:window-height="705"
     inkscape:window-x="-8"
     inkscape:window-y="-8"
     inkscape:window-maximized="1"
     inkscape:measure-start="0,0"
     inkscape:measure-end="0,0"
     inkscape:snap-grids="false"
     showguides="true"
     inkscape:guide-bbox="true">
    <inkscape:grid
       type="xygrid"
       id="grid4501" />
    <sodipodi:guide
       position="54.239583,204.52292"
       orientation="1,0"
       id="guide4523"
       inkscape:locked="false" />
  </sodipodi:namedview>
  <metadata
     id="metadata5">
    <rdf:RDF>
      <cc:Work
         rdf:about="">
        <dc:format>image/svg+xml</dc:format>
        <dc:type
           rdf:resource="http://purl.org/dc/dcmitype/StillImage" />
        <dc:title></dc:title>
      </cc:Work>
    </rdf:RDF>
  </metadata>
  <g
     inkscape:label="Layer 1"
     inkscape:groupmode="layer"
     id="layer1">
    <rect
       style="opacity:1;fill:#000003;fill-opacity:1;fill-rule:nonzero;stroke:#000000;stroke-width:0.40000001;stroke-linecap:round;stroke-linejoin:miter;stroke-miterlimit:3.9333334;stroke-dasharray:none;stroke-dashoffset:0;stroke-opacity:1;paint-order:markers stroke fill"
       id="rect4501"
       width="10.583333"
       height="10.583336"
       x="35.71875"
       y="76.072914"
       ry="1.0172515e-005" />
    <rect
       style="opacity:1;fill:none;fill-opacity:1;fill-rule:nonzero;stroke:#4d4d4c;stroke-width:0.1;stroke-linecap:round;stroke-linejoin:round;stroke-miterlimit:4;stroke-dasharray:none;stroke-dashoffset:0;stroke-opacity:1;paint-order:fill markers stroke"
       id="rect4505"
       width="2.6458333"
       height="2.6458333"
       x="35.71875"
       y="76.072914" />
    <path
       sodipodi:type="star"
       style="opacity:1;fill:#4d4d4c;fill-opacity:1;fill-rule:nonzero;stroke:#4d4d4c;stroke-width:0.13931854;stroke-linecap:round;stroke-linejoin:miter;stroke-miterlimit:4;stroke-dasharray:none;stroke-dashoffset:0;stroke-opacity:1;paint-order:fill markers stroke"
       id="path4503"
       sodipodi:sides="5"
       sodipodi:cx="36.981232"
       sodipodi:cy="77.34597"
       sodipodi:r1="0.9835819"
       sodipodi:r2="0.49179095"
       sodipodi:arg1="0.14189705"
       sodipodi:arg2="0.77021558"
       inkscape:flatsided="false"
       inkscape:rounded="0"
       inkscape:randomized="0"
       d="m 37.954928,77.48507 -0.620708,0.203329 -0.184391,0.626596 -0.385187,-0.527497 -0.652908,0.01826 0.382649,-0.529341 -0.219128,-0.615308 0.621678,0.200346 0.517479,-0.398544 0.0016,0.653161 z" />
    <rect
       style="opacity:1;fill:none;fill-opacity:1;fill-rule:nonzero;stroke:#4d4d4c;stroke-width:0.1;stroke-linecap:round;stroke-linejoin:round;stroke-miterlimit:4;stroke-dasharray:none;stroke-dashoffset:0;stroke-opacity:1;paint-order:fill markers stroke"
       id="rect4572"
       width="2.6458333"
       height="2.6458333"
       x="43.65625"
       y="76.072914" />
    <rect
       style="opacity:1;fill:#4d4d4c;fill-opacity:1;fill-rule:nonzero;stroke:#4d4d4c;stroke-width:0.1;stroke-linecap:round;stroke-linejoin:round;stroke-miterlimit:4;stroke-dasharray:none;stroke-dashoffset:0;stroke-opacity:1;paint-order:fill markers stroke"
       id="rect4570-4-1"
       width="2.6458333"
       height="2.6458333"
       x="35.71875"
       y="80.041664"
       inkscape:transform-center-x="-3.1805074" />
    <path
       sodipodi:type="spiral"
       style="fill:none;fill-rule:evenodd;stroke:#4d4d4c;stroke-width:0.26458332;stroke-opacity:1"
       id="path4676-7"
       sodipodi:cx="32.293037"
       sodipodi:cy="85.972435"
       sodipodi:expansion="1.02"
       sodipodi:revolution="4.3099999"
       sodipodi:radius="1.8708867"
       sodipodi:argument="-8.7022114"
       sodipodi:t0="0"
       d="m 32.293037,85.972435 c -0.04593,-0.04049 0.03275,-0.08207 0.06779,-0.0769 0.09792,0.01446 0.121583,0.137153 0.08815,0.214375 -0.06046,0.139622 -0.240645,0.167147 -0.363837,0.09833 -0.182139,-0.101738 -0.214135,-0.346466 -0.108335,-0.514609 0.141813,-0.225377 0.453441,-0.261831 0.666287,-0.118262 0.269065,0.181489 0.30996,0.561155 0.128156,0.818658 -0.221028,0.313057 -0.669415,0.35839 -0.971596,0.138035 -0.357274,-0.26053 -0.407046,-0.778105 -0.147908,-1.125011 0.300042,-0.401666 0.88715,-0.455881 1.278842,-0.157781 0.4462,0.339584 0.504863,0.9965 0.167654,1.433039 -0.379167,0.490854 -1.106115,0.553972 -1.587562,0.17753 -0.535614,-0.418793 -0.603192,-1.215964 -0.187413,-1.742382 0.458467,-0.580466 1.326027,-0.652508 1.897474,-0.1973 0.625401,0.498188 0.701914,1.436282 0.207193,2.052815 -0.537954,0.670411 -1.546715,0.7514 -2.208387,0.217093 -0.71549,-0.577765 -0.80096,-1.657311 -0.226999,-2.364176 0.61762,-0.760631 1.76806,-0.850587 2.520166,-0.23691 0.181097,0.147766 0.333434,0.329989 0.447298,0.534083"
       transform="matrix(0.56871748,0,0,0.57245358,26.613552,28.180605)" />
    <rect
       style="opacity:1;fill:#4d4d4c;fill-opacity:1;fill-rule:nonzero;stroke:#4d4d4c;stroke-width:0.1;stroke-linecap:round;stroke-linejoin:round;stroke-miterlimit:4;stroke-dasharray:none;stroke-dashoffset:0;stroke-opacity:1;paint-order:fill markers stroke"
       id="rect4570-4-1-2"
       width="2.6458333"
       height="2.6458333"
       x="39.6875"
       y="76.072914"
       inkscape:transform-center-x="-3.1805074" />
    <rect
       style="opacity:1;fill:#4d4d4c;fill-opacity:1;fill-rule:nonzero;stroke:#4d4d4c;stroke-width:0.1;stroke-linecap:round;stroke-linejoin:round;stroke-miterlimit:4;stroke-dasharray:none;stroke-dashoffset:0;stroke-opacity:1;paint-order:fill markers stroke"
       id="rect4570-4-1-2-0"
       width="2.6458333"
       height="2.6458333"
       x="39.6875"
       y="80.041664"
       inkscape:transform-center-x="-3.1805074" />
    <rect
       style="opacity:1;fill:#4d4d4c;fill-opacity:1;fill-rule:nonzero;stroke:#4d4d4c;stroke-width:0.1;stroke-linecap:round;stroke-linejoin:round;stroke-miterlimit:4;stroke-dasharray:none;stroke-dashoffset:0;stroke-opacity:1;paint-order:fill markers stroke"
       id="rect4570-4-1-2-0-6"
       width="2.6458333"
       height="2.6458333"
       x="35.71875"
       y="84.010414"
       inkscape:transform-center-x="-3.1805074" />
    <rect
       style="opacity:1;fill:#4d4d4c;fill-opacity:1;fill-rule:nonzero;stroke:#4d4d4c;stroke-width:0.1;stroke-linecap:round;stroke-linejoin:round;stroke-miterlimit:4;stroke-dasharray:none;stroke-dashoffset:0;stroke-opacity:1;paint-order:fill markers stroke"
       id="rect4570-4-1-2-0-6-9"
       width="2.6458333"
       height="2.6458333"
       x="43.65625"
       y="84.010414"
       inkscape:transform-center-x="-3.1805074" />
    <rect
       style="opacity:1;fill:none;fill-opacity:1;fill-rule:nonzero;stroke:#4d4d4c;stroke-width:0.1;stroke-linecap:round;stroke-linejoin:round;stroke-miterlimit:4;stroke-dasharray:none;stroke-dashoffset:0;stroke-opacity:1;paint-order:fill markers stroke"
       id="rect4505-9"
       width="2.6458333"
       height="2.6458333"
       x="43.65625"
       y="80.041664" />
    <path
       sodipodi:type="star"
       style="opacity:1;fill:#4d4d4c;fill-opacity:1;fill-rule:nonzero;stroke:#4d4d4c;stroke-width:0.13931854;stroke-linecap:round;stroke-linejoin:miter;stroke-miterlimit:4;stroke-dasharray:none;stroke-dashoffset:0;stroke-opacity:1;paint-order:fill markers stroke"
       id="path4503-0"
       sodipodi:sides="5"
       sodipodi:cx="44.918732"
       sodipodi:cy="81.31472"
       sodipodi:r1="0.9835819"
       sodipodi:r2="0.49179095"
       sodipodi:arg1="0.14189705"
       sodipodi:arg2="0.77021558"
       inkscape:flatsided="false"
       inkscape:rounded="0"
       inkscape:randomized="0"
       d="m 45.892428,81.45382 -0.620708,0.203329 -0.184391,0.626596 -0.385187,-0.527497 -0.652908,0.01826 0.382649,-0.529341 -0.219128,-0.615308 0.621678,0.200346 0.517479,-0.398544 0.0016,0.653161 z" />
    <rect
       style="opacity:1;fill:none;fill-opacity:1;fill-rule:nonzero;stroke:#4d4d4c;stroke-width:0.1;stroke-linecap:round;stroke-linejoin:round;stroke-miterlimit:4;stroke-dasharray:none;stroke-dashoffset:0;stroke-opacity:1;paint-order:fill markers stroke"
       id="rect4572-4"
       width="2.6458333"
       height="2.6458333"
       x="39.6875"
       y="84.010414" />
    <path
       sodipodi:type="spiral"
       style="fill:none;fill-rule:evenodd;stroke:#4d4d4c;stroke-width:0.26458332;stroke-opacity:1"
       id="path4676-7-4"
       sodipodi:cx="32.293037"
       sodipodi:cy="85.972435"
       sodipodi:expansion="1.02"
       sodipodi:revolution="4.3099999"
       sodipodi:radius="1.8708867"
       sodipodi:argument="-8.7022114"
       sodipodi:t0="0"
       d="m 32.293037,85.972435 c -0.04593,-0.04049 0.03275,-0.08207 0.06779,-0.0769 0.09792,0.01446 0.121583,0.137153 0.08815,0.214375 -0.06046,0.139622 -0.240645,0.167147 -0.363837,0.09833 -0.182139,-0.101738 -0.214135,-0.346466 -0.108335,-0.514609 0.141813,-0.225377 0.453441,-0.261831 0.666287,-0.118262 0.269065,0.181489 0.30996,0.561155 0.128156,0.818658 -0.221028,0.313057 -0.669415,0.35839 -0.971596,0.138035 -0.357274,-0.26053 -0.407046,-0.778105 -0.147908,-1.125011 0.300042,-0.401666 0.88715,-0.455881 1.278842,-0.157781 0.4462,0.339584 0.504863,0.9965 0.167654,1.433039 -0.379167,0.490854 -1.106115,0.553972 -1.587562,0.17753 -0.535614,-0.418793 -0.603192,-1.215964 -0.187413,-1.742382 0.458467,-0.580466 1.326027,-0.652508 1.897474,-0.1973 0.625401,0.498188 0.701914,1.436282 0.207193,2.052815 -0.537954,0.670411 -1.546715,0.7514 -2.208387,0.217093 -0.71549,-0.577765 -0.80096,-1.657311 -0.226999,-2.364176 0.61762,-0.760631 1.76806,-0.850587 2.520166,-0.23691 0.181097,0.147766 0.333434,0.329989 0.447298,0.534083"
       transform="matrix(0.56871748,0,0,0.57245358,22.644802,36.118104)" />
    <rect
       ry="1.0172515e-005"
       y="89.302086"
       x="35.71875"
       height="10.583336"
       width="10.583333"
       id="rect4503"
       style="opacity:1;fill:#000003;fill-opacity:1;fill-rule:nonzero;stroke:#000000;stroke-width:0.40000001;stroke-linecap:round;stroke-linejoin:miter;stroke-miterlimit:3.9333334;stroke-dasharray:none;stroke-dashoffset:0;stroke-opacity:1;paint-order:markers stroke fill"
       inkscape:export-xdpi="1000"
       inkscape:export-ydpi="1000" />
    <g
       id="g4542"
       transform="translate(-13.229166,2.1166733)">
      <g
         transform="translate(2.076826e-7,-1.4551689)"
         id="g4530">
        <path
           style="opacity:1;fill:none;fill-opacity:1;fill-rule:nonzero;stroke:#4d4d4c;stroke-width:1.51181102;stroke-linecap:round;stroke-linejoin:round;stroke-miterlimit:3.9333334;stroke-dasharray:none;stroke-dashoffset:0;stroke-opacity:1;paint-order:markers stroke fill"
           d="m 197,342.51953 -2,5 h -5 a 1.9999999,1.9999999 0 0 0 -2,2 v 16 a 1.9999999,1.9999999 0 0 0 2,2 h 30 a 1.9999999,1.9999999 0 0 0 2,-2 v -16 a 1.9999999,1.9999999 0 0 0 -2,-2 h -5 l -2,-5 z"
           transform="scale(0.26458333)"
           id="rect4506"
           inkscape:connector-curvature="0" />
        <circle
           style="opacity:1;fill:none;fill-opacity:1;fill-rule:nonzero;stroke:#4d4d4c;stroke-width:0.51841801;stroke-linecap:round;stroke-linejoin:miter;stroke-miterlimit:3.9333334;stroke-dasharray:none;stroke-dashoffset:0;stroke-opacity:1;paint-order:markers stroke fill"
           id="path4521"
           cx="54.239582"
           cy="94.45343"
           r="1.9931754" />
      </g>
      <circle
         r="0.49110773"
         cy="91.319397"
         cx="57.599922"
         id="path4536"
         style="opacity:1;fill:#4d4d4c;fill-opacity:1;fill-rule:nonzero;stroke:none;stroke-width:0.40000001;stroke-linecap:round;stroke-linejoin:round;stroke-miterlimit:3.9333334;stroke-dasharray:none;stroke-dashoffset:0;stroke-opacity:1;paint-order:markers stroke fill" />
    </g>
  </g>
</svg>
